<svg id="Layer_1" data-name="Layer 1" xmlns="http://www.w3.org/2000/svg" viewBox="0 0 208 208"><defs><style>.cls-1{fill:#0a0f18;}</style></defs><path class="cls-1" d="M-60.8,41C-78,41-92,53.8-92,69.5c0,12.4,8.6,27.5,16.8,39.1a17.8,17.8,0,0,0,28.8,0C-38.2,97-29.6,81.9-29.6,69.5-29.6,53.8-43.6,41-60.8,41Zm-.7,39.6c-17.1,0-17-24.1,0-24.1S-44.5,80.6-61.5,80.6Z" transform="translate(92 92.1)"/><path class="cls-1" d="M54.6,4.9H-7.8c-12,0-21.8-8.9-21.8-20S-19.8-35-7.8-35H32.8c5.7,0,10.4-4.3,10.4-9.5S38.5-54,32.8-54H-7.8c-23.5,0-42.6,17.4-42.6,38.9s19.1,39,42.6,39H54.6c11,0,19.8,8.1,19.8,18.1S65.6,60,54.6,60H1.6c-5.7,0-10.4,4.3-10.4,9.5S-4.1,79,1.6,79h53C77,79,95.2,62.4,95.2,42S77,4.9,54.6,4.9Z" transform="translate(92 92.1)"/><path class="cls-1" d="M84.8-92.1c-17.2,0-31.2,12.8-31.2,28.6,0,12.3,8.6,27.4,16.8,39a17.8,17.8,0,0,0,28.8,0c8.2-11.6,16.8-26.7,16.8-39C116-79.3,102-92.1,84.8-92.1Zm1.1,39c-17.1,0-17-24.2,0-24.2S102.9-53.1,85.9-53.1Z" transform="translate(92 92.1)"/></svg>