<svg xmlns="http://www.w3.org/2000/svg" viewBox="0 0 167.7 208"><defs><style>.cls-1{fill:#1f140f;}.cls-2{fill:#fff;}</style></defs><g id="Capa_1" data-name="Capa 1"><path class="cls-1" d="M297.4,196.5a87.1,87.1,0,0,0-83.9-87,87.1,87.1,0,0,0-83.8,87c0,19.7,4.6,31.5,17.6,52.5h-.1s55.4,66.3,66.3,68.5c10.9-2.2,66.3-68.5,66.3-68.5h0C292.8,228,297.4,216.2,297.4,196.5Z" transform="translate(-129.7 -109.5)"/><circle class="cls-2" cx="83.8" cy="83.2" r="58.6"/></g><g id="Layer_3" data-name="Layer 3"><path class="cls-1" d="M233.7,203.4A11.4,11.4,0,1,0,245,214.8,11.4,11.4,0,0,0,233.7,203.4Zm0,16.6a5.3,5.3,0,1,1,5.2-5.2A5.3,5.3,0,0,1,233.7,220Z" transform="translate(-129.7 -109.5)"/><path class="cls-1" d="M183,203.4a11.4,11.4,0,1,0,11.4,11.4A11.4,11.4,0,0,0,183,203.4Zm0,16.6a5.3,5.3,0,1,1,5.2-5.2A5.2,5.2,0,0,1,183,220Z" transform="translate(-129.7 -109.5)"/><path class="cls-1" d="M248.4,201.3h-1.6v-4.1h-2.1a5.3,5.3,0,0,1-5.1-4.5H217.8V179.1c9.1.1,16.7,1.8,21.8,5v-4.6c-5.3-2.4-12.2-3.7-21-3.7-17.1,0-38.2,6.8-41.7,17.5-8.9,1.4-18.7,3.9-18.7,13.1v6.1h12.6a12.4,12.4,0,0,1,24.5,0h26.1a12.4,12.4,0,0,1,24.5,0h2.5ZM160,205.6s.7-7.8,8.7-7.8C168.7,197.8,172.7,207,160,205.6Zm55.2-12.9h-32c3.2-7.5,19.2-12.9,32-13.5Z" transform="translate(-129.7 -109.5)"/><path class="cls-1" d="M265,168H245.8a3.9,3.9,0,0,0-3.9,3.9v19.2a3.8,3.8,0,0,0,3.9,3.9h3.9v4.4h1.8v27.1h7.8V199.4h1.8V195H265a3.9,3.9,0,0,0,3.9-3.9V171.9A4,4,0,0,0,265,168Zm-16.9,3.7h14.6c1.4,0,2.8,1.1,2.5,2.5s-2.6,4.4-4,4.4H249.6c-1.4,0-3.6-3-4-4.4S246.7,171.7,248.1,171.7Zm7.8,54v-30h1.7v30Zm9.6-35c-.5.9-1,1.4-1.4,1.4H246.5c-.4,0-.8-.4-1.2-1.1v-1.8c.7,1.7,1.1,1.8,1.2,1.8h17.6c.1,0,.5-.1,1.4-2.3Z" transform="translate(-129.7 -109.5)"/></g></svg>