<svg id="Layer_1" data-name="Layer 1" xmlns="http://www.w3.org/2000/svg" viewBox="0 0 352 208"><path d="M-36-43.5c0-27.2,20.8-48,48-48s48,20.8,48,48-20.8,48-48,48S-36-16.3-36-43.5Zm48,80c-73.6,0-96,52.8-96,52.8v27.2H108V89.3S85.6,36.5,12,36.5Z" transform="translate(164 91.5)"/><circle cx="280" cy="40" r="40"/><path d="M116,20.5c-19.2,0-33.6,4.8-44.8,12.8,36.8,17.6,51.2,48,51.2,51.2v1.6H188V65.3C188,63.7,170.4,20.5,116,20.5Z" transform="translate(164 91.5)"/><circle cx="280" cy="40" r="40"/><path d="M116,20.5c-19.2,0-33.6,4.8-44.8,12.8,36.8,17.6,51.2,48,51.2,51.2v1.6H188V65.3C188,63.7,170.4,20.5,116,20.5Z" transform="translate(164 91.5)"/><circle cx="72" cy="40" r="40"/><path d="M-92,20.5c19.2,0,33.6,4.8,44.8,12.8C-84,50.9-98.4,81.3-98.4,84.5v1.6H-164V65.3C-164,63.7-146.4,20.5-92,20.5Z" transform="translate(164 91.5)"/></svg>