<svg id="Layer_2" data-name="Layer 2" xmlns="http://www.w3.org/2000/svg" viewBox="0 0 181.2 208"><defs><style>.cls-1{fill:#161616;}</style></defs><rect id="svg_2" data-name="svg 2" class="cls-1" x="76.9" y="99.4" width="26.4" height="26.42"/><rect id="svg_3" data-name="svg 3" class="cls-1" x="118.3" y="99.4" width="26.4" height="26.42"/><rect id="svg_4" data-name="svg 4" class="cls-1" x="35.5" y="139.5" width="26.4" height="26.42"/><rect id="svg_5" data-name="svg 5" class="cls-1" x="76.9" y="139.5" width="26.4" height="26.42"/><rect id="svg_6" data-name="svg 6" class="cls-1" x="118.3" y="139.5" width="26.4" height="26.42"/><path id="svg_7" data-name="svg 7" class="cls-1" d="M-436.7-49.7h0a11.9,11.9,0,0,1-11.8-11.9V-88.2A11.8,11.8,0,0,1-436.7-100h0a11.8,11.8,0,0,1,11.8,11.8v26.7A11.9,11.9,0,0,1-436.7-49.7Z" transform="translate(486.1 100)"/><path id="svg_8" data-name="svg 8" class="cls-1" d="M-325-74.9h-13.4v16.2a17.9,17.9,0,0,1-17.8,18h-4.7a17.9,17.9,0,0,1-17.8-18V-74.9h-36.8v16.2a17.9,17.9,0,0,1-17.8,18H-438a17.9,17.9,0,0,1-17.8-18V-74.9h-10.3a20.3,20.3,0,0,0-20,20.3V87.7a20.2,20.2,0,0,0,20,20.3h141.2a20.2,20.2,0,0,0,20-20.3V-54.6A20.4,20.4,0,0,0-325-74.9Zm-3.4,143.4a12.6,12.6,0,0,1-12.4,12.6H-450.2a12.6,12.6,0,0,1-12.4-12.6V-3.2c0-6.9,5.6-13.1,12.4-13.1h109.4c6.8,0,12.4,6.2,12.4,13.1Z" transform="translate(486.1 100)"/><path id="svg_9" data-name="svg 9" class="cls-1" d="M-358.5-49.7h0a11.9,11.9,0,0,1-11.8-11.9V-88.2A11.8,11.8,0,0,1-358.5-100h0a11.9,11.9,0,0,1,11.9,11.8v26.7A12,12,0,0,1-358.5-49.7Z" transform="translate(486.1 100)"/></svg>