<svg id="Layer_4" data-name="Layer 4" xmlns="http://www.w3.org/2000/svg" viewBox="0 0 208 208"><g id="Expanded"><path d="M66.6,136.9H-46.9a4.6,4.6,0,0,1-4.7-4L-60.8,24C-79.5,22-94.2,7.3-94.2-10.5s17.4-35.3,38-35.3a35.5,35.5,0,0,1,12.5,2.3c6.6-16.8,27.2-27.6,53.5-27.6,24.7,0,42,9.1,52.7,27.9a35.5,35.5,0,0,1,13.4-2.6c20.5,0,37.9,16.2,37.9,35.3S99.2,22,80.4,24L71.3,132.9A4.7,4.7,0,0,1,66.6,136.9Zm-109.1-8.7H62.2L71.3,19.5a4.6,4.6,0,0,1,4.7-4c15.7,0,28.4-11.6,28.4-26S89.3-37.1,75.9-37.1A25,25,0,0,0,63-33.6a5.1,5.1,0,0,1-4,.5,4.2,4.2,0,0,1-2.9-2.4c-8.9-18.4-23.6-27-46.3-27C-14.6-62.5-33-52-36.1-36.4a4.5,4.5,0,0,1-2.8,3.2,4.9,4.9,0,0,1-4.4-.4,25.2,25.2,0,0,0-12.9-3.5c-13.5,0-28.5,10.9-28.5,26.6s12.7,26,28.3,26a4.7,4.7,0,0,1,4.8,4Z" transform="translate(94.2 71.1)"/><path d="M69.5,102.2H-49.9a4.5,4.5,0,0,1-4.7-4.3,4.6,4.6,0,0,1,4.7-4.4H69.5a4.6,4.6,0,0,1,4.7,4.4A4.5,4.5,0,0,1,69.5,102.2Z" transform="translate(94.2 71.1)"/><path d="M-13.8,102.2a4.5,4.5,0,0,1-4.7-4.3V63.2a4.5,4.5,0,0,1,4.7-4.3,4.5,4.5,0,0,1,4.7,4.3V97.9A4.5,4.5,0,0,1-13.8,102.2Z" transform="translate(94.2 71.1)"/><path d="M9.8,102.2a4.5,4.5,0,0,1-4.7-4.3V54.5a4.5,4.5,0,0,1,4.7-4.3,4.6,4.6,0,0,1,4.8,4.3V97.9A4.6,4.6,0,0,1,9.8,102.2Z" transform="translate(94.2 71.1)"/><path d="M33.5,102.2a4.6,4.6,0,0,1-4.8-4.3V63.2a4.6,4.6,0,0,1,4.8-4.3,4.5,4.5,0,0,1,4.7,4.3V97.9A4.5,4.5,0,0,1,33.5,102.2Z" transform="translate(94.2 71.1)"/></g></svg>