<svg id="Layer_1" data-name="Layer 1" xmlns="http://www.w3.org/2000/svg" viewBox="0 0 208 208"><defs><style>.cls-1{fill-rule:evenodd;}</style></defs><path class="cls-1" d="M128,103.1h0c0,14-10.1,25.4-22.6,25.4H-57.4c-12.5,0-22.6-11.4-22.6-25.4V-44c0-11.2,8.1-20.3,18.1-20.3H29.3L65.9-79.2a4.5,4.5,0,0,1,5.8,3l3.8,11.9H91.8c10,0,18.1,9.1,18.1,20.3v10.1h0c10,0,18.1,9.1,18.1,20.3ZM-61.9-54.2h0c-5,0-9.1,4.6-9.1,10.2s4.1,10.1,9.1,10.1h16.6L4.3-54.2Zm131.5,1L64.8-68.1h0l-9.3,3.8h0L30.6-54.2h-.1L-19.4-33.9H75.8ZM100.9-44c0-5.6-4.1-10.2-9.1-10.2h-13l6.6,20.3h15.5Zm9,20.3H-61.9A17.1,17.1,0,0,1-71-26.5V103.1c0,8.4,6.1,15.3,13.6,15.3H105.4c7.5,0,13.6-6.9,13.6-15.3V67.6H100.9c-10,0-18.1-9.1-18.1-20.3S90.9,27,100.9,27H119V-13.6C119-19.2,114.9-23.7,109.9-23.7ZM119,57.5V37.2H100.9c-5,0-9.1,4.5-9.1,10.1s4.1,10.2,9.1,10.2ZM100.9,42.2h9V52.4h-9Z" transform="translate(80 79.5)"/></svg>