<svg id="Layer_1" data-name="Layer 1" xmlns="http://www.w3.org/2000/svg" viewBox="0 0 346.5 227.5"><defs><style>.cls-1{fill:#ff1f1f;}.cls-2{opacity:0.55;}.cls-3{fill:#fff;}.cls-4{fill:#66142e;}.cls-5{opacity:0.35;}.cls-6{opacity:0.2;}.cls-7{fill:#792937;}</style></defs><path class="cls-1" d="M2172.6,1931.1l-21.6,79.4a24.4,24.4,0,0,1-23.6,18.1h-34.3a14.1,14.1,0,0,0-8.8,3.1l-33.5,27a7.5,7.5,0,0,1-10.9-1.6l-.8-1.4h0l-13.9-24.3h0a5.2,5.2,0,0,0-2-1.9,4.6,4.6,0,0,0-2.3-.6l-4.9-.3a12.7,12.7,0,0,1-10.6-5.8h0l-1-1.9h0l-11.7-21.9a12.8,12.8,0,0,1-2.9-12.5l24.9-79.3a21.5,21.5,0,0,1,19.9-15l111.3-2.7a12.7,12.7,0,0,1,11.6,6.9l2.6,4.6,11.1,20.3.4.7A12.4,12.4,0,0,1,2172.6,1931.1Z" transform="translate(-1828.9 -1887.1)"/><g class="cls-2"><path class="cls-3" d="M2157.6,1896.8a12.4,12.4,0,0,0-7.4-2.1l-111.3,2.6a21.6,21.6,0,0,0-19.9,15.1l-24.9,79.3a12.5,12.5,0,0,0,2.9,12.4l11.7,21.9h0v.2a13,13,0,0,1-3.7-3.7h0l-1-1.9h0l-11.6-21.9a12.6,12.6,0,0,1-2.9-12.5l24.9-79.3a21.4,21.4,0,0,1,19.9-15l111.3-2.7a12.8,12.8,0,0,1,11.6,6.9Z" transform="translate(-1828.9 -1887.1)"/></g><path class="cls-4" d="M2046.1,2062.7h-1.4a10.4,10.4,0,0,1-6.8-4.1v-.2l-.8-1.5h0l-13.8-24.2h-.1a2.6,2.6,0,0,0-2.2-1.3h-.2l-4.7-.3a14.9,14.9,0,0,1-12.6-6.8h-.1l-1-1.9h0l-11.5-21.5a15,15,0,0,1-3.2-14.6l24.9-79.3a23.8,23.8,0,0,1,22.1-16.7l111.2-2.6a14.8,14.8,0,0,1,13.8,8.1l14.1,25.6a15.8,15.8,0,0,1,1.2,10.9h0l-21.6,79.3a26.9,26.9,0,0,1-25.9,19.8h-34.3a12.3,12.3,0,0,0-7.3,2.6l-33.6,27A9.9,9.9,0,0,1,2046.1,2062.7Zm-4.3-6.8a5.8,5.8,0,0,0,3.6,2.1,5.2,5.2,0,0,0,3.9-1.2l33.6-26.9a15.9,15.9,0,0,1,10.2-3.6h34.3a22.3,22.3,0,0,0,21.4-16.4l21.5-79.4h0a10,10,0,0,0-.8-7.4l-.3-.7-13.7-24.8h0a10.3,10.3,0,0,0-9.5-5.6l-111.3,2.6a19.1,19.1,0,0,0-17.7,13.4l-24.9,79.3a10.3,10.3,0,0,0,2.3,10.2,1,1,0,0,1,.4.5l11.6,21.9a.1.1,0,0,1,.1.1l.9,1.7a10.5,10.5,0,0,0,8.7,4.7h.1l4.8.3a7.2,7.2,0,0,1,6.2,3.6.3.3,0,0,1,.1.2l13.8,24.1v.2Zm130.8-124.8Z" transform="translate(-1828.9 -1887.1)"/><path class="cls-4" d="M2032,2036.8a10.9,10.9,0,0,1-2.6-.4,9.5,9.5,0,0,1-6.5-6.1,10.1,10.1,0,0,1-.4-4.6l2.6-17a3.2,3.2,0,0,0-.7-2.6,3.3,3.3,0,0,0-2.5-1.1H2002a14.7,14.7,0,0,1-14.1-19.1l24.9-79.3a23.4,23.4,0,0,1,21.8-16.4l111.3-2.7a16.9,16.9,0,0,1,3.8.4,13.4,13.4,0,0,1,5,2.3,14.9,14.9,0,0,1,5.7,15.9h0l-21.5,79.3a26.5,26.5,0,0,1-25.6,19.6H2079a12.1,12.1,0,0,0-7.5,2.7l-33.6,26.9A9.4,9.4,0,0,1,2032,2036.8Zm114.3-145.3h-.3l-111.3,2.7a19.5,19.5,0,0,0-18.1,13.6l-24.8,79.3a10.4,10.4,0,0,0,1.5,9.5,10.7,10.7,0,0,0,8.7,4.4h19.9a7.3,7.3,0,0,1,5.6,2.5,7.8,7.8,0,0,1,1.6,5.9l-2.6,17a5.7,5.7,0,0,0,.2,2.6,5.6,5.6,0,0,0,3.8,3.5,5.1,5.1,0,0,0,4.9-1l33.6-27a15.8,15.8,0,0,1,10-3.5h34.3a22.5,22.5,0,0,0,21.7-16.6l21.6-79.4h0a10.7,10.7,0,0,0-4.2-11.5,9.6,9.6,0,0,0-3.7-1.7A9.9,9.9,0,0,0,2146.3,1891.5Zm12.2,14Z" transform="translate(-1828.9 -1887.1)"/><g class="cls-5"><path class="cls-4" d="M2154.7,1901.3l-21.5,79.4a24.5,24.5,0,0,1-23.7,18h-34.3a14.1,14.1,0,0,0-8.8,3.1l-33.5,27a4.4,4.4,0,1,1-8.4-2.8l.8-5a7.5,7.5,0,0,0,1.7-1l33.5-27a14.1,14.1,0,0,1,8.8-3.1h34.3a24.5,24.5,0,0,0,23.6-18l21.6-79.4c.2-.9.3-1.8.4-2.6a25.3,25.3,0,0,0-.1-2.8,13.5,13.5,0,0,1,4.5,4.7A12.9,12.9,0,0,1,2154.7,1901.3Z" transform="translate(-1828.9 -1887.1)"/></g><g class="cls-5"><path class="cls-4" d="M2172.6,1931.1l-21.6,79.4a24.4,24.4,0,0,1-23.6,18.1h-34.3a14.1,14.1,0,0,0-8.8,3.1l-33.5,27a7.5,7.5,0,0,1-8.9.4,6.4,6.4,0,0,1-2-2l-.8-1.4h0l-12.3-21.5h0l-1.6-2.8h0a5.2,5.2,0,0,0-2-1.9l1.3-3.5a7.5,7.5,0,0,0,2.7,7l1,.7a7.6,7.6,0,0,0,12.1,4.1l33.5-27a14.1,14.1,0,0,1,8.8-3.1h34.3a24.5,24.5,0,0,0,23.6-18.1l21.6-79.4,1.2-3.4,7.9,14.5.4.7A12.4,12.4,0,0,1,2172.6,1931.1Z" transform="translate(-1828.9 -1887.1)"/></g><path class="cls-4" d="M2086.1,2031.9a2,2,0,0,1-1.8-1.2l-12-25.7a2,2,0,0,1,1-2.7,2,2,0,0,1,2.6,1l12,25.7a2,2,0,0,1-1,2.7Z" transform="translate(-1828.9 -1887.1)"/><g class="cls-5"><polygon class="cls-4" points="186.7 115.9 194.3 139.2 193.4 143.3 184.2 143.3 172.8 115.9 186.7 115.9"/></g><g class="cls-6"><path class="cls-3" d="M2028.6,1908.9h7.2a3.1,3.1,0,0,1,3,4l-6.3,21.4a3.3,3.3,0,0,1-3,2.3h-6.9a3.2,3.2,0,0,1-3-4l6-21.4A3.1,3.1,0,0,1,2028.6,1908.9Z" transform="translate(-1828.9 -1887.1)"/></g><g class="cls-6"><path class="cls-3" d="M2018.1,1943.2h7.2a3.2,3.2,0,0,1,3,4.1l-2.1,5.5a3.1,3.1,0,0,1-3,2.3h-6.8a3.1,3.1,0,0,1-3-4l1.7-5.6A3.1,3.1,0,0,1,2018.1,1943.2Z" transform="translate(-1828.9 -1887.1)"/></g><path class="cls-3" d="M2060.4,1922c4.7.1,8.9,2,11.3,5.7l.7,1.2,1.4-1.1a21.6,21.6,0,0,1,14.1-5.3,14.2,14.2,0,0,1,10,4.1c5.5,5.9,3.7,16-4,22.5l-5.5,4.6-19.5,16.4a11.7,11.7,0,0,1-7.8,2.9,7.2,7.2,0,0,1-6.2-3.2l-10.9-17-3.1-4.7c-4.3-6.8-1-16.9,7.5-22.5a21.4,21.4,0,0,1,12-3.6" transform="translate(-1828.9 -1887.1)"/><path class="cls-1" d="M2015,2043.5c0,.2-.1.4-.1.6s-.1.5-.1.8a.6.6,0,0,0-.1.4c-.1.2-.1.4-.2.5a4.3,4.3,0,0,1-.1.5l-.5,1.2-.3.5a.5.5,0,0,1-.2.4,2.5,2.5,0,0,1-.4.7c-.1.1-.1.3-.2.4l-.8,1-.4.4-11.7,21.9h0l-1,1.9h0a12.4,12.4,0,0,1-10.6,5.8l-4.9.3a5,5,0,0,0-4.3,2.5h0l-13.9,24.2h0l-.7,1.5a7.7,7.7,0,0,1-11,1.5l-33.5-27a14.1,14.1,0,0,0-8.8-3.1h-34.3a25,25,0,0,1-11.9-3,24.6,24.6,0,0,1-11.7-15l-21.6-79.4a12.6,12.6,0,0,1,1-9.2l.4-.7,13.7-24.8a12.3,12.3,0,0,1,11.6-6.9l111.3,2.6a21.6,21.6,0,0,1,19.9,15.1l21.8,69.5,3.1,9.7h0v.2a10.1,10.1,0,0,1,.5,2.5h0A8.9,8.9,0,0,1,2015,2043.5Z" transform="translate(-1828.9 -1887.1)"/><g class="cls-2"><path class="cls-3" d="M1989.2,1958.1a21.3,21.3,0,0,0-16.2-8l-111.2-2.7a12.8,12.8,0,0,0-11.7,6.9l-13.7,24.9-.4.7a12.4,12.4,0,0,0-.9,9.1l21.5,79.4a18.4,18.4,0,0,0,.9,2.5,22.9,22.9,0,0,1-4.2-8.4l-21.6-79.4a12.6,12.6,0,0,1,1-9.2l.4-.7,13.7-24.8a12.3,12.3,0,0,1,11.6-6.9l111.3,2.6A21.4,21.4,0,0,1,1989.2,1958.1Z" transform="translate(-1828.9 -1887.1)"/></g><path class="cls-4" d="M1958.2,2114.6a9.4,9.4,0,0,1-6.1-2.2l-33.6-26.9a11.6,11.6,0,0,0-7.3-2.6h-34.3a27,27,0,0,1-25.9-19.8l-21.5-79.4h0a14.9,14.9,0,0,1,1.1-10.8l14.1-25.6a14.9,14.9,0,0,1,13.8-8.2l111.2,2.7a23.6,23.6,0,0,1,22.1,16.6l24.9,79.3a15,15,0,0,1-3.2,14.6l-11.5,21.5h0l-1,1.9h-.1a15,15,0,0,1-12.6,6.9l-4.7.3h-.2a2.6,2.6,0,0,0-2.2,1.3h-.1l-13.8,24.2h0l-.8,1.4c0,.1-.1.1-.1.2a10,10,0,0,1-6.8,4.1ZM1834,1982.5l21.5,79.3a22.1,22.1,0,0,0,21.4,16.4h34.3a16.5,16.5,0,0,1,10.2,3.6l33.6,27a5,5,0,0,0,3.9,1.1,5.8,5.8,0,0,0,3.6-2.1l.6-1.2h.1l13.8-24.2v-.2h0a7.5,7.5,0,0,1,6.3-3.6l4.7-.3h.2a10.4,10.4,0,0,0,8.6-4.7l.9-1.7a.1.1,0,0,1,.1-.1l11.6-21.9.4-.5a10.3,10.3,0,0,0,2.3-10.2l-24.9-79.2a19,19,0,0,0-17.7-13.4l-111.3-2.7a10.5,10.5,0,0,0-9.5,5.6h0l-14.1,25.6a10.5,10.5,0,0,0-.7,7.4Z" transform="translate(-1828.9 -1887.1)"/><path class="cls-4" d="M1972.3,2088.7a9.3,9.3,0,0,1-5.9-2.1l-33.6-27a12.1,12.1,0,0,0-7.5-2.7H1891a26.6,26.6,0,0,1-25.6-19.5l-21.5-79.4h0a14.6,14.6,0,0,1,14.6-18.5l111.2,2.6a23.6,23.6,0,0,1,21.8,16.4l24.9,79.3a14.6,14.6,0,0,1-2.2,13.1,14.3,14.3,0,0,1-11.9,6h-19.9a3.3,3.3,0,0,0-2.5,1.2,3,3,0,0,0-.7,2.6l2.6,17a9.4,9.4,0,0,1-4.7,9.7A9.1,9.1,0,0,1,1972.3,2088.7Zm-124.6-131.8,21.6,79.4a22.5,22.5,0,0,0,21.7,16.6h34.3a15.9,15.9,0,0,1,10,3.6l33.6,26.9a5.3,5.3,0,0,0,6.2.5,5.4,5.4,0,0,0,2.7-5.6l-2.6-17a7.2,7.2,0,0,1,1.7-5.8,6.8,6.8,0,0,1,5.5-2.6h19.9a10.9,10.9,0,0,0,8.7-4.3,10.6,10.6,0,0,0,1.5-9.6l-24.8-79.3a19.7,19.7,0,0,0-18.1-13.6l-111.2-2.6a10.6,10.6,0,0,0-8.7,4,11,11,0,0,0-2,9.4Z" transform="translate(-1828.9 -1887.1)"/><g class="cls-5"><path class="cls-4" d="M2014.5,2038.7A12.6,12.6,0,0,1,2002,2049h-19.9a5.2,5.2,0,0,0-5.2,6.1l2.6,17a7.5,7.5,0,0,1-12.2,7l-33.6-27a13.9,13.9,0,0,0-8.8-3.1h-34.2a24.5,24.5,0,0,1-23.7-18l-1.5-5.6a24.7,24.7,0,0,0,22,13.8h34.3a14.1,14.1,0,0,1,8.8,3.1l33.6,27a7.5,7.5,0,0,0,12.1-7.1l-2.6-17a5.3,5.3,0,0,1,5.2-6h20a12.7,12.7,0,0,0,12.5-10.5l3.1,9.7h0Z" transform="translate(-1828.9 -1887.1)"/></g><path class="cls-7" d="M1973.6,2093l5.4-9.5.2,1A7.5,7.5,0,0,1,1973.6,2093Z" transform="translate(-1828.9 -1887.1)"/><path class="cls-4" d="M1973,2093.5l6.2-11,.3,2a7.8,7.8,0,0,1-5.8,8.8Zm5.9-9.1-4.6,8a7,7,0,0,0,4.6-7.8Z" transform="translate(-1828.9 -1887.1)"/><g class="cls-5"><path class="cls-4" d="M1973.6,2093l-8.4,14.6h0l-.7,1.5a7.7,7.7,0,0,1-11,1.5l-33.5-27a14.1,14.1,0,0,0-8.8-3.1h-34.3a25,25,0,0,1-11.9-3h0l9.1-18.3a2.7,2.7,0,0,1,3.8-1.1,24.5,24.5,0,0,0,12.5,3.5h34.3a14.1,14.1,0,0,1,8.8,3.1l33.5,26.9A7.5,7.5,0,0,0,1973.6,2093Z" transform="translate(-1828.9 -1887.1)"/></g><g class="cls-5"><path class="cls-4" d="M2006.5,2060.6l-6.6,12.2h0l-1,1.9h0a12.4,12.4,0,0,1-10.6,5.8l-4.9.3a5,5,0,0,0-4.3,2.5h-.1v-.7a7.1,7.1,0,0,0,.9-4.8l-2.2-14.4a5,5,0,0,1,4.2-2.1h20A15.1,15.1,0,0,0,2006.5,2060.6Z" transform="translate(-1828.9 -1887.1)"/></g><g class="cls-5"><path class="cls-7" d="M2015,2041.2l-.5-2.7A25.6,25.6,0,0,1,2015,2041.2Z" transform="translate(-1828.9 -1887.1)"/><path class="cls-4" d="M2014.7,2041.2c-.3-1.5-.5-2.4-.5-2.7h.6a23.3,23.3,0,0,1,.5,2.8Z" transform="translate(-1828.9 -1887.1)"/></g><path class="cls-4" d="M1918.2,2083.8l-.8-.2a2,2,0,0,1-1-2.7l12-25.7a1.9,1.9,0,0,1,2.7-.9,1.9,1.9,0,0,1,.9,2.6l-12,25.7A1.8,1.8,0,0,1,1918.2,2083.8Z" transform="translate(-1828.9 -1887.1)"/><g class="cls-6"><path class="cls-3" d="M1874.4,1953.1h-7a5.4,5.4,0,0,0-5.2,6.6l2.2,8.7a5.2,5.2,0,0,0,5.9,4h.3a4.4,4.4,0,0,0,3.8-4.9l-.4-3.9a3.3,3.3,0,0,1,2.3-3.5l2.9-.9a2.4,2.4,0,0,0,.8-4.1l-.3-.2A9.1,9.1,0,0,0,1874.4,1953.1Z" transform="translate(-1828.9 -1887.1)"/></g><g class="cls-6"><path class="cls-3" d="M1868,1982l1.1,5.8a2.8,2.8,0,0,0,2.7,2.2h3.2a2.8,2.8,0,0,0,2.7-3.4l-1.3-5.7a2.8,2.8,0,0,0-2.6-2.1l-3-.2A2.8,2.8,0,0,0,1868,1982Z" transform="translate(-1828.9 -1887.1)"/></g><path class="cls-3" d="M1946,1970.7c-4.7.1-8.9,2.1-11.3,5.8l-.8,1.2-1.3-1.2a21.5,21.5,0,0,0-14.1-5.2,13.4,13.4,0,0,0-10,4.1c-5.6,5.9-3.7,15.9,4,22.5l5.5,4.6,19.5,16.4a12.2,12.2,0,0,0,7.8,2.9,7.5,7.5,0,0,0,6.2-3.2l10.9-17,3.1-4.8c4.3-6.8,1-16.8-7.5-22.4a20.8,20.8,0,0,0-12-3.7" transform="translate(-1828.9 -1887.1)"/></svg>