<svg id="Layer_6" data-name="Layer 6" xmlns="http://www.w3.org/2000/svg" viewBox="0 0 208 208"><path d="M129.6,49.2C121,40.3,96.5,23.7,80.4,23.7a17.6,17.6,0,0,0-9.6,2.5c-7.9,5.1-14.1,9-17.1,9s-3.5-1.5-7.4-4.9l-.6-.6C34.9,20.3,32.6,17.9,28.4,13.5l-1.1-1.1-2.1-2.1C21.6,6.5,18.9,3.8,9.5-6.9l-.4-.4c-4.5-5.1-7.4-8.4-7.6-10.8s1.9-6.2,7.1-13.4,6.7-19.3.8-31.6C4.7-72.9-2.9-82.2-9.6-90.4l-.6-.7c-5.8-7.1-12.5-10.7-20-10.7s-15.3,4.5-18.9,6.9l-.9.6C-58.2-89.1-64.2-82-66.5-74.7c-3.3,10.9-5.6,25.1,10.6,54.6C-42,5.4-29.4,22.6-9.3,43.2S18,68.8,36.8,82.4c20.9,15.2,41,23.8,55.1,23.8s23.3,0,38-17.6S138.9,58.7,129.6,49.2Zm-6.8,33C111,96.5,104.2,96.5,91.9,96.5s-30.6-8.3-49.7-22S15.7,55.1-2.6,36.3-34.3-.2-47.8-24.9s-12.6-37.4-9.7-46.8C-56-76.8-51.4-82.1-45.1-86a4.7,4.7,0,0,1,.9-.6c3.2-2,8.4-5.4,14-5.4s8.9,2.4,13,7.3l.6.7c15,18.4,26.8,34.7,17.9,46.8-6.2,8.4-9.6,14.2-9,20.1S-3.4-7.1,2.4-.6l.4.5c9.5,10.7,12.2,13.6,16,17.4l2.1,2.1,1,1.2c4.4,4.5,6.8,7,17.9,16.7l.7.6c4.7,4.2,8.2,7.2,13.3,7.2s11-3.3,22-10.4a8.8,8.8,0,0,1,4.7-1.1c12.9,0,35,14.7,42.7,22.7S133.8,68.9,122.8,82.2Z" transform="translate(68.9 101.8)"/></svg>