<svg width="49" height="40" viewBox="0 0 49 40" fill="none" xmlns="http://www.w3.org/2000/svg">
<path d="M49 4.71387C47.1973 5.51346 45.2596 6.05383 43.2264 6.29681C45.3015 5.05265 46.8958 3.08259 47.6463 0.735008C45.7037 1.88716 43.5524 2.72373 41.2625 3.17447C39.4288 1.22069 36.8163 0 33.9248 0C28.373 0 23.8715 4.50091 23.8715 10.0527C23.8715 10.8405 23.9606 11.6078 24.132 12.3437C15.777 11.9244 8.36947 7.92218 3.41133 1.84C2.54594 3.32473 2.05019 5.0516 2.05019 6.89399C2.05019 10.3818 3.82489 13.4588 6.52241 15.2617C4.87465 15.2092 3.32436 14.7571 1.9691 14.0041C1.96814 14.0461 1.96814 14.0881 1.96814 14.1305C1.96814 19.0014 5.43341 23.0643 10.0322 23.9879C9.18871 24.2177 8.30057 24.3407 7.38375 24.3407C6.73597 24.3407 6.10621 24.2774 5.49228 24.1603C6.7716 28.1539 10.4842 31.0607 14.8833 31.1415C11.4428 33.8381 7.10811 35.4452 2.39809 35.4452C1.58665 35.4452 0.786448 35.3974 0 35.3044C4.44889 38.1568 9.73314 39.8214 15.4102 39.8214C33.9011 39.8214 44.013 24.503 44.013 11.2183C44.013 10.7825 44.0031 10.349 43.9837 9.91774C45.948 8.50036 47.6524 6.72986 49 4.71387Z" fill="white"/>
</svg>
